<svg xmlns="http://www.w3.org/2000/svg" width="32" height="32" version="1" id="camera"><path fill-rule="evenodd" fill="#064e3b" d="M16 0C7.123 0 0 7.176 0 16s7.07 16 15.947 16C24.824 32 32 24.824 32 16S24.877 0 16 0zm-.621 8.932c.022 0 .037.013.037.043h3.508c.058 0 .176 0 .234.058l1.112 1.112h2.806a1.45 1.45 0 0 1 1.463 1.462v10c0 .82-.644 1.461-1.463 1.461H8.924a1.448 1.448 0 0 1-1.463-1.46v-10a1.45 1.45 0 0 1 1.463-1.463h5.205l1.053-1.112s.058-.058.117-.058c.03-.03.058-.043.08-.043zm-5.402 3.552a.32.32 0 0 0-.176.291v1.756c0 .176.117.291.293.291h2.34c.117 0 .29-.115.29-.29v-1.757c0-.117-.115-.29-.29-.29H9.977zm9.298.291a3.795 3.795 0 0 0-3.8 3.803c0 2.105 1.695 3.8 3.8 3.8 2.106 0 3.801-1.695 3.801-3.8a3.795 3.795 0 0 0-3.8-3.803zm-8.888.293h1.754v1.17h-1.754v-1.17zm8.888 1.463c1.112 0 2.047.936 2.047 2.047 0 1.111-.935 2.047-2.047 2.047-1.11 0-2.046-.936-2.046-2.047 0-1.111.935-2.047 2.046-2.047zm-9.298.877c-.176.059-.235.233-.176.35 0 .175.176.293.351.234h2.338c.117 0 .235-.174.235-.29 0-.118-.116-.294-.291-.294H9.977z" clip-rule="evenodd"></path></svg>