<svg xmlns="http://www.w3.org/2000/svg" width="25" height="25" id="pencil"><path fill-rule="evenodd" fill="#f59e0b" d="M12.5 0A12.5 12.5 0 0 0 0 12.5 12.5 12.5 0 0 0 12.5 25 12.5 12.5 0 0 0 25 12.5 12.5 12.5 0 0 0 12.5 0zm5.64 6.01v.004c.242 0 .482.089.663.27l.922.921c.36.36.36.964 0 1.324l-.602.604-.367.367-4.7 4.7-3.374 1.124 1.125-3.375 4.709-4.687-.008-.012.97-.97c.18-.181.422-.27.663-.27zm0 1.021-.568.569.838.826.563-.563-.832-.832zM6 8.02h8v1H7v7h11v-5.016h1v6.016h-6v1.968h2v1h-5v-1h2V17.02H6v-9zm10.871.296-3.767 3.75.834.834 3.765-3.767-.832-.817zm-4.334 4.598-.273.824.824-.273-.55-.55z"></path></svg>