<svg xmlns="http://www.w3.org/2000/svg" width="32" height="32" version="1" id="camera"><path fill-rule="evenodd" fill="#c2410c" d="M16 0C7.176 0 0 7.176 0 16s7.176 16 16 16 16-7.176 16-16S24.824 0 16 0zm-.566 6.635c1.358 0 2.49 1.132 2.49 2.603 0 .85-.395 1.587-1.018 2.04H18.83a1.4 1.4 0 0 1 1.414 1.413v1.811l3.623-2.094c.057-.056.057-.056.113-.056.17 0 .34.113.34.283v8.547c0 .17-.283.34-.453.226l-3.623-2.039v1.813a1.4 1.4 0 0 1-1.414 1.414H9.152a1.401 1.401 0 0 1-1.416-1.414l-.056-8.547c0-.793.623-1.414 1.416-1.414h1.527a1.98 1.98 0 0 1-.566-1.36 1.91 1.91 0 0 1 1.925-1.924c.397 0 .792.17 1.075.397.396-.962 1.301-1.7 2.377-1.7zm-1.924 4.19c-.057.169-.17.226-.34.396h.736c-.113-.113-.283-.227-.396-.397zm.68 2.66c-.17 0-.227.226-.227.34.056.169.227.28.396.224h3.961c.17 0 .284-.112.284-.281 0-.17-.114-.284-.284-.284H14.19zm-3.907 5.658a.87.87 0 0 0-.847.85c0 .452.394.849.847.849h4.528c.452 0 .85-.397.85-.85a.872.872 0 0 0-.85-.85h-4.528zm0 .566h4.584c.113 0 .227.113.227.283 0 .17-.114.283-.283.283h-4.528c-.17 0-.283-.113-.283-.283 0-.17.113-.283.283-.283z" clip-rule="evenodd"></path></svg>