<svg id="wave" style="transform:rotate(0deg); transition: 0.3s" viewBox="0 0 1440 410" version="1.1" xmlns="http://www.w3.org/2000/svg"><defs><linearGradient id="sw-gradient-0" x1="0" x2="0" y1="1" y2="0"><stop stop-color="rgba(243, 106, 62, 1)" offset="0%"></stop><stop stop-color="rgba(255, 179, 11, 1)" offset="100%"></stop></linearGradient></defs><path style="transform:translate(0, 0px); opacity:1" fill="url(#sw-gradient-0)" d="M0,205L80,191.3C160,178,320,150,480,129.8C640,109,800,96,960,129.8C1120,164,1280,246,1440,266.5C1600,287,1760,246,1920,246C2080,246,2240,287,2400,252.8C2560,219,2720,109,2880,102.5C3040,96,3200,191,3360,225.5C3520,260,3680,232,3840,184.5C4000,137,4160,68,4320,88.8C4480,109,4640,219,4800,273.3C4960,328,5120,328,5280,307.5C5440,287,5600,246,5760,246C5920,246,6080,287,6240,273.3C6400,260,6560,191,6720,198.2C6880,205,7040,287,7200,266.5C7360,246,7520,123,7680,123C7840,123,8000,246,8160,246C8320,246,8480,123,8640,82C8800,41,8960,82,9120,88.8C9280,96,9440,68,9600,68.3C9760,68,9920,96,10080,116.2C10240,137,10400,150,10560,157.2C10720,164,10880,164,11040,177.7C11200,191,11360,219,11440,232.3L11520,246L11520,410L11440,410C11360,410,11200,410,11040,410C10880,410,10720,410,10560,410C10400,410,10240,410,10080,410C9920,410,9760,410,9600,410C9440,410,9280,410,9120,410C8960,410,8800,410,8640,410C8480,410,8320,410,8160,410C8000,410,7840,410,7680,410C7520,410,7360,410,7200,410C7040,410,6880,410,6720,410C6560,410,6400,410,6240,410C6080,410,5920,410,5760,410C5600,410,5440,410,5280,410C5120,410,4960,410,4800,410C4640,410,4480,410,4320,410C4160,410,4000,410,3840,410C3680,410,3520,410,3360,410C3200,410,3040,410,2880,410C2720,410,2560,410,2400,410C2240,410,2080,410,1920,410C1760,410,1600,410,1440,410C1280,410,1120,410,960,410C800,410,640,410,480,410C320,410,160,410,80,410L0,410Z"></path><defs><linearGradient id="sw-gradient-1" x1="0" x2="0" y1="1" y2="0"><stop stop-color="rgba(243, 106, 62, 1)" offset="0%"></stop><stop stop-color="rgba(255, 179, 11, 1)" offset="100%"></stop></linearGradient></defs><path style="transform:translate(0, 50px); opacity:0.9" fill="url(#sw-gradient-1)" d="M0,123L80,102.5C160,82,320,41,480,47.8C640,55,800,109,960,170.8C1120,232,1280,301,1440,280.2C1600,260,1760,150,1920,136.7C2080,123,2240,205,2400,246C2560,287,2720,287,2880,266.5C3040,246,3200,205,3360,198.2C3520,191,3680,219,3840,252.8C4000,287,4160,328,4320,300.7C4480,273,4640,178,4800,136.7C4960,96,5120,109,5280,109.3C5440,109,5600,96,5760,136.7C5920,178,6080,273,6240,266.5C6400,260,6560,150,6720,95.7C6880,41,7040,41,7200,82C7360,123,7520,205,7680,252.8C7840,301,8000,314,8160,266.5C8320,219,8480,109,8640,75.2C8800,41,8960,82,9120,143.5C9280,205,9440,287,9600,280.2C9760,273,9920,178,10080,170.8C10240,164,10400,246,10560,252.8C10720,260,10880,191,11040,184.5C11200,178,11360,232,11440,259.7L11520,287L11520,410L11440,410C11360,410,11200,410,11040,410C10880,410,10720,410,10560,410C10400,410,10240,410,10080,410C9920,410,9760,410,9600,410C9440,410,9280,410,9120,410C8960,410,8800,410,8640,410C8480,410,8320,410,8160,410C8000,410,7840,410,7680,410C7520,410,7360,410,7200,410C7040,410,6880,410,6720,410C6560,410,6400,410,6240,410C6080,410,5920,410,5760,410C5600,410,5440,410,5280,410C5120,410,4960,410,4800,410C4640,410,4480,410,4320,410C4160,410,4000,410,3840,410C3680,410,3520,410,3360,410C3200,410,3040,410,2880,410C2720,410,2560,410,2400,410C2240,410,2080,410,1920,410C1760,410,1600,410,1440,410C1280,410,1120,410,960,410C800,410,640,410,480,410C320,410,160,410,80,410L0,410Z"></path></svg>